<mxfile host="65bd71144e">
    <diagram name="Page-1" id="efa7a0a1-bf9b-a30e-e6df-94a7791c09e9">
        <mxGraphModel dx="733" dy="570" grid="1" gridSize="10" guides="1" tooltips="1" connect="1" arrows="1" fold="1" page="1" pageScale="1" pageWidth="826" pageHeight="1169" background="none" math="0" shadow="0">
            <root>
                <mxCell id="0"/>
                <mxCell id="1" parent="0"/>
                <mxCell id="54" value="" style="whiteSpace=wrap;html=1;fontSize=14;fillColor=#60a917;fontColor=#ffffff;strokeColor=none;rounded=1;" parent="1" vertex="1">
                    <mxGeometry x="21" y="1036" width="188" height="110.59" as="geometry"/>
                </mxCell>
                <mxCell id="cfpsc6jXq1qX4nPtxx3e-117" style="edgeStyle=orthogonalEdgeStyle;orthogonalLoop=1;jettySize=auto;html=1;entryX=0.5;entryY=0;entryDx=0;entryDy=0;strokeColor=default;rounded=1;startArrow=classic;startFill=1;exitX=1.006;exitY=0.375;exitDx=0;exitDy=0;exitPerimeter=0;endArrow=none;endFill=0;" parent="1" source="22" target="28" edge="1">
                    <mxGeometry relative="1" as="geometry">
                        <mxPoint x="360" y="275" as="sourcePoint"/>
                        <Array as="points">
                            <mxPoint x="330" y="153"/>
                            <mxPoint x="330" y="20"/>
                            <mxPoint x="430" y="20"/>
                        </Array>
                    </mxGeometry>
                </mxCell>
                <mxCell id="31" value="role_id" style="edgeLabel;html=1;align=center;verticalAlign=middle;resizable=0;points=[];" parent="cfpsc6jXq1qX4nPtxx3e-117" vertex="1" connectable="0">
                    <mxGeometry x="-0.9658" y="1" relative="1" as="geometry">
                        <mxPoint x="32" as="offset"/>
                    </mxGeometry>
                </mxCell>
                <mxCell id="50" style="edgeStyle=orthogonalEdgeStyle;html=1;entryX=0.5;entryY=0;entryDx=0;entryDy=0;fontSize=12;startArrow=classic;startFill=1;endArrow=none;endFill=0;exitX=1.019;exitY=0.844;exitDx=0;exitDy=0;exitPerimeter=0;" parent="1" source="22" target="46" edge="1">
                    <mxGeometry relative="1" as="geometry">
                        <Array as="points">
                            <mxPoint x="360" y="256"/>
                            <mxPoint x="360" y="170"/>
                            <mxPoint x="470" y="170"/>
                        </Array>
                    </mxGeometry>
                </mxCell>
                <mxCell id="51" value="authority_id" style="edgeLabel;html=1;align=center;verticalAlign=middle;resizable=0;points=[];fontSize=11;" parent="50" vertex="1" connectable="0">
                    <mxGeometry x="-0.7152" y="-1" relative="1" as="geometry">
                        <mxPoint x="5" y="-2" as="offset"/>
                    </mxGeometry>
                </mxCell>
                <mxCell id="55" style="edgeStyle=orthogonalEdgeStyle;html=1;entryX=0.187;entryY=0.002;entryDx=0;entryDy=0;entryPerimeter=0;startArrow=classic;startFill=1;" edge="1" parent="1" source="22" target="cfpsc6jXq1qX4nPtxx3e-128">
                    <mxGeometry relative="1" as="geometry">
                        <Array as="points">
                            <mxPoint x="180" y="365"/>
                            <mxPoint x="56" y="365"/>
                            <mxPoint x="56" y="440"/>
                        </Array>
                    </mxGeometry>
                </mxCell>
                <mxCell id="59" value="Domain_Instance" style="edgeLabel;html=1;align=center;verticalAlign=middle;resizable=0;points=[];fontColor=#003366;labelBackgroundColor=#D4E1F5;labelBorderColor=none;" vertex="1" connectable="0" parent="55">
                    <mxGeometry x="0.0915" y="2" relative="1" as="geometry">
                        <mxPoint x="14" y="-3" as="offset"/>
                    </mxGeometry>
                </mxCell>
                <mxCell id="56" style="edgeStyle=orthogonalEdgeStyle;html=1;entryX=0;entryY=0.25;entryDx=0;entryDy=0;exitX=0.75;exitY=1;exitDx=0;exitDy=0;elbow=vertical;startArrow=classic;startFill=1;" edge="1" parent="1" source="22" target="32">
                    <mxGeometry relative="1" as="geometry">
                        <Array as="points">
                            <mxPoint x="205" y="380"/>
                            <mxPoint x="540" y="380"/>
                            <mxPoint x="540" y="460"/>
                        </Array>
                    </mxGeometry>
                </mxCell>
                <mxCell id="58" value="Domain_User" style="edgeLabel;html=1;align=center;verticalAlign=middle;resizable=0;points=[];fontColor=#003366;labelBackgroundColor=#D4E1F5;" vertex="1" connectable="0" parent="56">
                    <mxGeometry x="0.0422" y="1" relative="1" as="geometry">
                        <mxPoint x="-11" as="offset"/>
                    </mxGeometry>
                </mxCell>
                <mxCell id="22" value="&lt;p style=&quot;margin: 0px ; margin-top: 4px ; text-align: center ; text-decoration: underline&quot;&gt;&lt;strong&gt;Users&lt;/strong&gt;&lt;/p&gt;&lt;hr&gt;&lt;p style=&quot;margin: 0px ; margin-left: 8px&quot;&gt;id (integer)&lt;/p&gt;&lt;p style=&quot;margin: 0px ; margin-left: 8px&quot;&gt;name (string)&lt;/p&gt;&lt;p style=&quot;margin: 0px ; margin-left: 8px&quot;&gt;username (string)&lt;/p&gt;&lt;p style=&quot;margin: 0px ; margin-left: 8px&quot;&gt;email (string)&lt;/p&gt;&lt;p style=&quot;margin: 0px ; margin-left: 8px&quot;&gt;email_verified_at (timestamp)&lt;/p&gt;&lt;p style=&quot;margin: 0px ; margin-left: 8px&quot;&gt;password (string)&lt;/p&gt;&lt;p style=&quot;margin: 0px ; margin-left: 8px&quot;&gt;status (boolean)&lt;/p&gt;&lt;p style=&quot;margin: 0px ; margin-left: 8px&quot;&gt;createdAt (timestamp)&lt;/p&gt;&lt;p style=&quot;margin: 0px ; margin-left: 8px&quot;&gt;updatedAt (timestamp)&lt;/p&gt;&lt;p style=&quot;margin: 0px ; margin-left: 8px&quot;&gt;rememberToken&lt;/p&gt;&lt;p style=&quot;margin: 0px ; margin-left: 8px&quot;&gt;role_id (integer)&lt;/p&gt;&lt;p style=&quot;margin: 0px ; margin-left: 8px&quot;&gt;authority_id (integer)&lt;/p&gt;" style="verticalAlign=top;align=left;overflow=fill;fontSize=12;fontFamily=Helvetica;html=1;strokeColor=#003366;shadow=1;fillColor=#D4E1F5;fontColor=#003366" parent="1" vertex="1">
                    <mxGeometry x="70" y="70" width="180" height="220" as="geometry"/>
                </mxCell>
                <mxCell id="28" value="&lt;p style=&quot;margin: 0px ; margin-top: 4px ; text-align: center ; text-decoration: underline&quot;&gt;&lt;strong&gt;Roles&lt;/strong&gt;&lt;/p&gt;&lt;hr&gt;&lt;p style=&quot;margin: 0px ; margin-left: 8px&quot;&gt;id (integer)&lt;/p&gt;&lt;p style=&quot;margin: 0px ; margin-left: 8px&quot;&gt;name (string)&lt;/p&gt;&lt;p style=&quot;margin: 0px 0px 0px 8px&quot;&gt;createdAt (timestamp)&lt;/p&gt;&lt;p style=&quot;margin: 0px 0px 0px 8px&quot;&gt;updatedAt (timestamp)&lt;/p&gt;" style="verticalAlign=top;align=left;overflow=fill;fontSize=12;fontFamily=Helvetica;html=1;strokeColor=#003366;shadow=1;fillColor=#D4E1F5;fontColor=#003366" parent="1" vertex="1">
                    <mxGeometry x="350" y="40" width="160" height="110" as="geometry"/>
                </mxCell>
                <mxCell id="cfpsc6jXq1qX4nPtxx3e-124" value="&lt;span style=&quot;background-color: rgb(212 , 225 , 245)&quot;&gt;&lt;font color=&quot;#003366&quot;&gt;Table_pivot&lt;/font&gt;&lt;/span&gt;" style="endArrow=classic;startArrow=classic;html=1;rounded=1;strokeColor=default;curved=1;startSize=6;" parent="1" edge="1">
                    <mxGeometry width="50" height="50" relative="1" as="geometry">
                        <mxPoint x="55" y="1130" as="sourcePoint"/>
                        <mxPoint x="175" y="1130" as="targetPoint"/>
                        <mxPoint as="offset"/>
                    </mxGeometry>
                </mxCell>
                <mxCell id="cfpsc6jXq1qX4nPtxx3e-125" value="Many to Many" style="edgeLabel;html=1;align=center;verticalAlign=middle;resizable=0;points=[];labelBackgroundColor=none;fontSize=14;" parent="cfpsc6jXq1qX4nPtxx3e-124" vertex="1" connectable="0">
                    <mxGeometry x="0.3835" y="-1" relative="1" as="geometry">
                        <mxPoint x="-20" y="-17" as="offset"/>
                    </mxGeometry>
                </mxCell>
                <mxCell id="37" value="" style="rounded=0;whiteSpace=wrap;html=1;fillColor=none;" parent="1" vertex="1">
                    <mxGeometry x="1120" y="620" width="520" height="490" as="geometry"/>
                </mxCell>
                <mxCell id="cfpsc6jXq1qX4nPtxx3e-126" value="" style="endArrow=classic;startArrow=none;html=1;rounded=1;strokeColor=default;curved=1;startFill=0;fontColor=#FFFFFF;" parent="1" edge="1">
                    <mxGeometry width="50" height="50" relative="1" as="geometry">
                        <mxPoint x="57" y="1095.13" as="sourcePoint"/>
                        <mxPoint x="173" y="1095.13" as="targetPoint"/>
                    </mxGeometry>
                </mxCell>
                <mxCell id="cfpsc6jXq1qX4nPtxx3e-127" value="&lt;font style=&quot;font-size: 14px&quot;&gt;One to Many&lt;/font&gt;" style="edgeLabel;html=1;align=center;verticalAlign=middle;resizable=0;points=[];labelBackgroundColor=none;" parent="cfpsc6jXq1qX4nPtxx3e-126" vertex="1" connectable="0">
                    <mxGeometry x="0.3835" y="-1" relative="1" as="geometry">
                        <mxPoint x="-20" y="-20" as="offset"/>
                    </mxGeometry>
                </mxCell>
                <mxCell id="60" value="&lt;font style=&quot;font-size: 11px&quot;&gt;Key_id&lt;/font&gt;" style="edgeLabel;html=1;align=center;verticalAlign=middle;resizable=0;points=[];fontSize=14;fontColor=#FFFFFF;labelBackgroundColor=#60A917;" vertex="1" connectable="0" parent="cfpsc6jXq1qX4nPtxx3e-126">
                    <mxGeometry x="-0.2988" y="-1" relative="1" as="geometry">
                        <mxPoint x="17" y="-3" as="offset"/>
                    </mxGeometry>
                </mxCell>
                <mxCell id="42" style="edgeStyle=orthogonalEdgeStyle;html=1;fontSize=16;startArrow=classic;startFill=1;entryX=0.5;entryY=0;entryDx=0;entryDy=0;endArrow=none;endFill=0;" parent="1" source="cfpsc6jXq1qX4nPtxx3e-128" target="40" edge="1">
                    <mxGeometry relative="1" as="geometry">
                        <mxPoint x="270" y="480.95238095238096" as="targetPoint"/>
                        <Array as="points">
                            <mxPoint x="400" y="510"/>
                            <mxPoint x="400" y="560"/>
                            <mxPoint x="438" y="560"/>
                        </Array>
                    </mxGeometry>
                </mxCell>
                <mxCell id="44" value="maintenance_id" style="edgeLabel;html=1;align=center;verticalAlign=middle;resizable=0;points=[];fontSize=11;" parent="42" vertex="1" connectable="0">
                    <mxGeometry x="-0.588" y="-2" relative="1" as="geometry">
                        <mxPoint x="18" y="-3" as="offset"/>
                    </mxGeometry>
                </mxCell>
                <object label="&lt;p style=&quot;margin: 0px ; margin-top: 4px ; text-align: center ; text-decoration: underline&quot;&gt;&lt;strong&gt;Instances&lt;/strong&gt;&lt;/p&gt;&lt;hr&gt;&lt;p style=&quot;margin: 0px ; margin-left: 8px&quot;&gt;id (integer)&lt;/p&gt;&lt;p style=&quot;margin: 0px ; margin-left: 8px&quot;&gt;name (string)&lt;/p&gt;&lt;p style=&quot;margin: 0px ; margin-left: 8px&quot;&gt;ip (string) -&amp;gt; unique&lt;/p&gt;&lt;p style=&quot;margin: 0px ; margin-left: 8px&quot;&gt;instance_tag (integer) -&amp;gt; nullable&lt;/p&gt;&lt;p style=&quot;margin: 0px ; margin-left: 8px&quot;&gt;port (string) -&amp;gt; nullable&lt;/p&gt;&lt;p style=&quot;margin: 0px ; margin-left: 8px&quot;&gt;cpu (integer) -&amp;gt; nullable&lt;/p&gt;&lt;p style=&quot;margin: 0px ; margin-left: 8px&quot;&gt;mem (integer) -&amp;gt; nullable&lt;span&gt;&lt;br&gt;&lt;/span&gt;&lt;/p&gt;&lt;p style=&quot;margin: 0px ; margin-left: 8px&quot;&gt;disk (integer) -&amp;gt; nullable&lt;br&gt;&lt;/p&gt;&lt;p style=&quot;margin: 0px ; margin-left: 8px&quot;&gt;status (boolean)&lt;/p&gt;&lt;p style=&quot;margin: 0px ; margin-left: 8px&quot;&gt;checking (boolean)&lt;/p&gt;&lt;p style=&quot;margin: 0px ; margin-left: 8px&quot;&gt;description -&amp;gt; nullable&lt;/p&gt;&lt;p style=&quot;margin: 0px ; margin-left: 8px&quot;&gt;maintenance_id (integer)&lt;/p&gt;&lt;p style=&quot;margin: 0px ; margin-left: 8px&quot;&gt;&lt;span&gt;createdAt (timestamp)&lt;/span&gt;&lt;br&gt;&lt;/p&gt;&lt;p style=&quot;margin: 0px ; margin-left: 8px&quot;&gt;updatedAt (timestamp)&lt;/p&gt;" hedietLinkedDataV1_path=".." id="cfpsc6jXq1qX4nPtxx3e-128">
                    <mxCell style="verticalAlign=top;align=left;overflow=fill;fontSize=12;fontFamily=Helvetica;html=1;strokeColor=#003366;shadow=1;fillColor=#D4E1F5;fontColor=#003366;" parent="1" vertex="1">
                        <mxGeometry x="20" y="440" width="190" height="240" as="geometry"/>
                    </mxCell>
                </object>
                <mxCell id="43" style="edgeStyle=orthogonalEdgeStyle;html=1;exitX=0;exitY=0.5;exitDx=0;exitDy=0;entryX=0.5;entryY=0;entryDx=0;entryDy=0;fontSize=16;startArrow=classic;startFill=1;endArrow=none;endFill=0;" parent="1" source="32" target="40" edge="1">
                    <mxGeometry relative="1" as="geometry">
                        <Array as="points">
                            <mxPoint x="437" y="510"/>
                        </Array>
                    </mxGeometry>
                </mxCell>
                <mxCell id="45" value="&lt;span style=&quot;font-size: 11px;&quot;&gt;maintenance_id&lt;/span&gt;" style="edgeLabel;html=1;align=center;verticalAlign=middle;resizable=0;points=[];fontSize=11;" parent="43" vertex="1" connectable="0">
                    <mxGeometry x="-0.6236" y="1" relative="1" as="geometry">
                        <mxPoint x="-31" y="-2" as="offset"/>
                    </mxGeometry>
                </mxCell>
                <mxCell id="32" value="&lt;p style=&quot;margin: 0px ; margin-top: 4px ; text-align: center ; text-decoration: underline&quot;&gt;&lt;strong&gt;Domains&lt;/strong&gt;&lt;/p&gt;&lt;hr&gt;&lt;p style=&quot;margin: 0px ; margin-left: 8px&quot;&gt;id (integer)&lt;/p&gt;&lt;p style=&quot;margin: 0px ; margin-left: 8px&quot;&gt;name (string)&lt;/p&gt;&lt;p style=&quot;margin: 0px ; margin-left: 8px&quot;&gt;ip (string) -&amp;gt; nullable&lt;/p&gt;&lt;p style=&quot;margin: 0px ; margin-left: 8px&quot;&gt;domain_tag (integer) -&amp;gt; nullable&lt;/p&gt;&lt;p style=&quot;margin: 0px ; margin-left: 8px&quot;&gt;spec (string) -&amp;gt; nullable&lt;/p&gt;&lt;p style=&quot;margin: 0px ; margin-left: 8px&quot;&gt;status (boolean)&lt;/p&gt;&lt;p style=&quot;margin: 0px ; margin-left: 8px&quot;&gt;checking (boolean)&lt;br&gt;&lt;/p&gt;&lt;p style=&quot;margin: 0px ; margin-left: 8px&quot;&gt;description -&amp;gt; nullable&lt;/p&gt;&lt;p style=&quot;margin: 0px ; margin-left: 8px&quot;&gt;maintenance_id (integer)&lt;/p&gt;&lt;p style=&quot;margin: 0px ; margin-left: 8px&quot;&gt;&lt;span&gt;createdAt (timestamp)&lt;/span&gt;&lt;br&gt;&lt;/p&gt;&lt;p style=&quot;margin: 0px ; margin-left: 8px&quot;&gt;updatedAt (timestamp)&lt;/p&gt;" style="verticalAlign=top;align=left;overflow=fill;fontSize=12;fontFamily=Helvetica;html=1;strokeColor=#003366;shadow=1;fillColor=#D4E1F5;fontColor=#003366" parent="1" vertex="1">
                    <mxGeometry x="580" y="410" width="190" height="200" as="geometry"/>
                </mxCell>
                <object label="&lt;p style=&quot;margin: 0px ; margin-top: 4px ; text-align: center ; text-decoration: underline&quot;&gt;&lt;strong&gt;Service&lt;/strong&gt;&lt;/p&gt;&lt;hr&gt;&lt;p style=&quot;margin: 0px ; margin-left: 8px&quot;&gt;id (int)&lt;/p&gt;&lt;p style=&quot;margin: 0px ; margin-left: 8px&quot;&gt;name (string)&lt;/p&gt;&lt;p style=&quot;margin: 0px ; margin-left: 8px&quot;&gt;&lt;span&gt;status (boolean)&lt;/span&gt;&lt;br&gt;&lt;/p&gt;&lt;p style=&quot;margin: 0px ; margin-left: 8px&quot;&gt;checking (boolean)&lt;/p&gt;&lt;p style=&quot;margin: 0px ; margin-left: 8px&quot;&gt;description -&amp;gt; nullable&lt;/p&gt;&lt;p style=&quot;margin: 0px ; margin-left: 8px&quot;&gt;maintenance_id&lt;/p&gt;&lt;p style=&quot;margin: 0px ; margin-left: 8px&quot;&gt;&lt;span&gt;createdAt (timestamp)&lt;/span&gt;&lt;br&gt;&lt;/p&gt;&lt;p style=&quot;margin: 0px ; margin-left: 8px&quot;&gt;updatedAt (timestamp)&lt;/p&gt;" hedietLinkedDataV1_path=".." id="35">
                    <mxCell style="verticalAlign=top;align=left;overflow=fill;fontSize=12;fontFamily=Helvetica;html=1;strokeColor=#003366;shadow=1;fillColor=#D4E1F5;fontColor=#003366" parent="1" vertex="1">
                        <mxGeometry x="1380" y="690" width="230" height="160" as="geometry"/>
                    </mxCell>
                </object>
                <object label="&lt;p style=&quot;margin: 0px ; margin-top: 4px ; text-align: center ; text-decoration: underline&quot;&gt;&lt;strong&gt;Service_Provider&lt;/strong&gt;&lt;/p&gt;&lt;hr&gt;&lt;p style=&quot;margin: 0px ; margin-left: 8px&quot;&gt;id (int)&lt;/p&gt;&lt;p style=&quot;margin: 0px ; margin-left: 8px&quot;&gt;name (string)&lt;/p&gt;&lt;p style=&quot;margin: 0px ; margin-left: 8px&quot;&gt;&lt;span&gt;status (boolean)&lt;/span&gt;&lt;br&gt;&lt;/p&gt;&lt;p style=&quot;margin: 0px ; margin-left: 8px&quot;&gt;checking (boolean)&lt;/p&gt;&lt;p style=&quot;margin: 0px ; margin-left: 8px&quot;&gt;description -&amp;gt; nullable&lt;/p&gt;&lt;p style=&quot;margin: 0px ; margin-left: 8px&quot;&gt;maintenance_id&lt;/p&gt;&lt;p style=&quot;margin: 0px ; margin-left: 8px&quot;&gt;&lt;span&gt;createdAt (timestamp)&lt;/span&gt;&lt;br&gt;&lt;/p&gt;&lt;p style=&quot;margin: 0px ; margin-left: 8px&quot;&gt;updatedAt (timestamp)&lt;/p&gt;" hedietLinkedDataV1_path=".." id="36">
                    <mxCell style="verticalAlign=top;align=left;overflow=fill;fontSize=12;fontFamily=Helvetica;html=1;strokeColor=#003366;shadow=1;fillColor=#D4E1F5;fontColor=#003366" parent="1" vertex="1">
                        <mxGeometry x="1140" y="690" width="230" height="160" as="geometry"/>
                    </mxCell>
                </object>
                <mxCell id="38" value="&lt;font style=&quot;font-size: 16px&quot;&gt;Use Soon&lt;/font&gt;" style="text;html=1;strokeColor=none;fillColor=none;align=center;verticalAlign=middle;whiteSpace=wrap;rounded=0;" parent="1" vertex="1">
                    <mxGeometry x="1122" y="631" width="118" height="30" as="geometry"/>
                </mxCell>
                <object label="&lt;p style=&quot;margin: 0px ; margin-top: 4px ; text-align: center ; text-decoration: underline&quot;&gt;&lt;strong&gt;Maintenances&lt;/strong&gt;&lt;/p&gt;&lt;hr&gt;&lt;p style=&quot;margin: 0px ; margin-left: 8px&quot;&gt;id (integer)&lt;/p&gt;&lt;p style=&quot;margin: 0px ; margin-left: 8px&quot;&gt;name (string)&lt;/p&gt;&lt;p style=&quot;margin: 0px ; margin-left: 8px&quot;&gt;&lt;span&gt;createdAt (timestamp)&lt;/span&gt;&lt;br&gt;&lt;/p&gt;&lt;p style=&quot;margin: 0px ; margin-left: 8px&quot;&gt;updatedAt (timestamp)&lt;/p&gt;" hedietLinkedDataV1_path=".." id="40">
                    <mxCell style="verticalAlign=top;align=left;overflow=fill;fontSize=12;fontFamily=Helvetica;html=1;strokeColor=#003366;shadow=1;fillColor=#D4E1F5;fontColor=#003366" parent="1" vertex="1">
                        <mxGeometry x="360" y="590" width="155" height="100" as="geometry"/>
                    </mxCell>
                </object>
                <mxCell id="46" value="&lt;p style=&quot;margin: 0px ; margin-top: 4px ; text-align: center ; text-decoration: underline&quot;&gt;&lt;b&gt;Authorities&lt;/b&gt;&lt;/p&gt;&lt;hr&gt;&lt;p style=&quot;margin: 0px ; margin-left: 8px&quot;&gt;id (integer)&lt;/p&gt;&lt;p style=&quot;margin: 0px ; margin-left: 8px&quot;&gt;&lt;span&gt;edit (boolean)&lt;/span&gt;&lt;br&gt;&lt;/p&gt;&lt;p style=&quot;margin: 0px ; margin-left: 8px&quot;&gt;view (boolean)&lt;/p&gt;&lt;p style=&quot;margin: 0px ; margin-left: 8px&quot;&gt;delete (boolean)&lt;/p&gt;&lt;p style=&quot;margin: 0px 0px 0px 8px&quot;&gt;createdAt (timestamp)&lt;/p&gt;&lt;p style=&quot;margin: 0px 0px 0px 8px&quot;&gt;updatedAt (timestamp)&lt;/p&gt;&lt;span style=&quot;color: rgba(0 , 0 , 0 , 0) ; font-family: monospace ; font-size: 0px&quot;&gt;%3CmxGraphModel%3E%3Croot%3E%3CmxCell%20id%3D%220%22%2F%3E%3CmxCell%20id%3D%221%22%20parent%3D%220%22%2F%3E%3CmxCell%20id%3D%222%22%20value%3D%22%26lt%3Bp%20style%3D%26quot%3Bmargin%3A%200px%20%3B%20margin-top%3A%204px%20%3B%20text-align%3A%20center%20%3B%20text-decoration%3A%20underline%26quot%3B%26gt%3B%26lt%3Bstrong%26gt%3Broles%26lt%3B%2Fstrong%26gt%3B%26lt%3B%2Fp%26gt%3B%26lt%3Bhr%26gt%3B%26lt%3Bp%20style%3D%26quot%3Bmargin%3A%200px%20%3B%20margin-left%3A%208px%26quot%3B%26gt%3Bid%20(integer)%26lt%3B%2Fp%26gt%3B%26lt%3Bp%20style%3D%26quot%3Bmargin%3A%200px%20%3B%20margin-left%3A%208px%26quot%3B%26gt%3Bname%20(string)%26lt%3B%2Fp%26gt%3B%26lt%3Bp%20style%3D%26quot%3Bmargin%3A%200px%200px%200px%208px%26quot%3B%26gt%3BcreatedAt%20(timestamp)%26lt%3B%2Fp%26gt%3B%26lt%3Bp%20style%3D%26quot%3Bmargin%3A%200px%200px%200px%208px%26quot%3B%26gt%3BupdatedAt%20(timestamp)%26lt%3B%2Fp%26gt%3B%22%20style%3D%22verticalAlign%3Dtop%3Balign%3Dleft%3Boverflow%3Dfill%3BfontSize%3D12%3BfontFamily%3DHelvetica%3Bhtml%3D1%3BstrokeColor%3D%23003366%3Bshadow%3D1%3BfillColor%3D%23D4E1F5%3BfontColor%3D%23003366%22%20vertex%3D%221%22%20parent%3D%221%22%3E%3CmxGeometry%20x%3D%22390%22%20y%3D%22140%22%20width%3D%22160%22%20height%3D%22110%22%20as%3D%22geometry%22%2F%3E%3C%2FmxCell%3E%3C%2Froot%3E%3C%2FmxGraphModel%3E&lt;/span&gt;" style="verticalAlign=top;align=left;overflow=fill;fontSize=12;fontFamily=Helvetica;html=1;strokeColor=#003366;shadow=1;fillColor=#D4E1F5;fontColor=#003366" parent="1" vertex="1">
                    <mxGeometry x="390" y="190" width="160" height="140" as="geometry"/>
                </mxCell>
                <mxCell id="52" value="Database Relationship&amp;nbsp;" style="text;whiteSpace=wrap;html=1;fontSize=15;align=center;verticalAlign=middle;fontStyle=1" parent="1" vertex="1">
                    <mxGeometry x="32" y="1039" width="172" height="30" as="geometry"/>
                </mxCell>
                <mxCell id="62" value="&lt;p style=&quot;margin: 0px ; margin-top: 4px ; text-align: center ; text-decoration: underline&quot;&gt;&lt;b&gt;Setting&lt;/b&gt;&lt;/p&gt;&lt;hr&gt;&lt;p style=&quot;margin: 0px ; margin-left: 8px&quot;&gt;id (integer)&lt;/p&gt;&lt;p style=&quot;margin: 0px ; margin-left: 8px&quot;&gt;&lt;span&gt;Key (string)&lt;/span&gt;&lt;br&gt;&lt;/p&gt;&lt;p style=&quot;margin: 0px ; margin-left: 8px&quot;&gt;Value (text)&lt;/p&gt;&lt;p style=&quot;margin: 0px 0px 0px 8px&quot;&gt;createdAt (timestamp)&lt;/p&gt;&lt;p style=&quot;margin: 0px 0px 0px 8px&quot;&gt;updatedAt (timestamp)&lt;/p&gt;&lt;span style=&quot;color: rgba(0 , 0 , 0 , 0) ; font-family: monospace ; font-size: 0px&quot;&gt;%3CmxGraphModel%3E%3Croot%3E%3CmxCell%20id%3D%220%22%2F%3E%3CmxCell%20id%3D%221%22%20parent%3D%220%22%2F%3E%3CmxCell%20id%3D%222%22%20value%3D%22%26lt%3Bp%20style%3D%26quot%3Bmargin%3A%200px%20%3B%20margin-top%3A%204px%20%3B%20text-align%3A%20center%20%3B%20text-decoration%3A%20underline%26quot%3B%26gt%3B%26lt%3Bstrong%26gt%3Broles%26lt%3B%2Fstrong%26gt%3B%26lt%3B%2Fp%26gt%3B%26lt%3Bhr%26gt%3B%26lt%3Bp%20style%3D%26quot%3Bmargin%3A%200px%20%3B%20margin-left%3A%208px%26quot%3B%26gt%3Bid%20(integer)%26lt%3B%2Fp%26gt%3B%26lt%3Bp%20style%3D%26quot%3Bmargin%3A%200px%20%3B%20margin-left%3A%208px%26quot%3B%26gt%3Bname%20(string)%26lt%3B%2Fp%26gt%3B%26lt%3Bp%20style%3D%26quot%3Bmargin%3A%200px%200px%200px%208px%26quot%3B%26gt%3BcreatedAt%20(timestamp)%26lt%3B%2Fp%26gt%3B%26lt%3Bp%20style%3D%26quot%3Bmargin%3A%200px%200px%200px%208px%26quot%3B%26gt%3BupdatedAt%20(timestamp)%26lt%3B%2Fp%26gt%3B%22%20style%3D%22verticalAlign%3Dtop%3Balign%3Dleft%3Boverflow%3Dfill%3BfontSize%3D12%3BfontFamily%3DHelvetica%3Bhtml%3D1%3BstrokeColor%3D%23003366%3Bshadow%3D1%3BfillColor%3D%23D4E1F5%3BfontColor%3D%23003366%22%20vertex%3D%221%22%20parent%3D%221%22%3E%3CmxGeometry%20x%3D%22390%22%20y%3D%22140%22%20width%3D%22160%22%20height%3D%22110%22%20as%3D%22geometry%22%2F%3E%3C%2FmxCell%3E%3C%2Froot%3E%3C%2FmxGraphModel%3E&lt;/span&gt;" style="verticalAlign=top;align=left;overflow=fill;fontSize=12;fontFamily=Helvetica;html=1;strokeColor=#003366;shadow=1;fillColor=#D4E1F5;fontColor=#003366" vertex="1" parent="1">
                    <mxGeometry x="610" y="60" width="160" height="110" as="geometry"/>
                </mxCell>
            </root>
        </mxGraphModel>
    </diagram>
</mxfile>
